<svg width="139" height="23" viewBox="0 0 139 23" fill="none" xmlns="http://www.w3.org/2000/svg">
<path d="M0.651279 22.5V0.681816H9.66406C11.2976 0.681816 12.7074 0.976561 13.8935 1.56605C15.0866 2.14844 16.0064 2.9865 16.6527 4.08025C17.299 5.1669 17.6222 6.45596 17.6222 7.94744C17.6222 9.46023 17.2919 10.7457 16.6314 11.804C15.9709 12.8551 15.0334 13.6577 13.8189 14.2116C12.6044 14.7585 11.1662 15.032 9.50426 15.032H3.80469V10.8771H8.52415C9.3196 10.8771 9.98367 10.7741 10.5163 10.5682C11.0561 10.3551 11.4645 10.0355 11.7415 9.60937C12.0185 9.17614 12.157 8.62216 12.157 7.94744C12.157 7.27273 12.0185 6.7152 11.7415 6.27486C11.4645 5.82741 11.0561 5.49361 10.5163 5.27344C9.97656 5.04616 9.3125 4.93253 8.52415 4.93253H5.92472V22.5H0.651279ZM12.9347 12.5284L18.3679 22.5H12.6151L7.28835 12.5284H12.9347ZM23.5146 22.5V0.681816H38.7276V4.96449H28.788V9.43892H37.9499V13.7322H28.788V18.2173H38.7276V22.5H23.5146ZM56.8235 7.22301C56.7525 6.44176 56.4364 5.83452 55.8754 5.40128C55.3214 4.96094 54.5295 4.74077 53.4996 4.74077C52.8178 4.74077 52.2496 4.82954 51.7951 5.0071C51.3406 5.18466 50.9996 5.42969 50.7724 5.74219C50.5451 6.04758 50.4279 6.39915 50.4208 6.79687C50.4066 7.12358 50.4705 7.41122 50.6126 7.6598C50.7617 7.90838 50.9748 8.12855 51.2518 8.32031C51.5359 8.50497 51.8768 8.66832 52.2745 8.81037C52.6722 8.95241 53.1197 9.0767 53.6168 9.18324L55.4918 9.60937C56.5714 9.84375 57.5231 10.1562 58.347 10.5469C59.1779 10.9375 59.8739 11.4027 60.435 11.9425C61.0032 12.4822 61.4329 13.1037 61.7241 13.8068C62.0153 14.5099 62.1644 15.2983 62.1715 16.1719C62.1644 17.5497 61.8164 18.7322 61.1275 19.7195C60.4386 20.7067 59.4478 21.4631 58.1552 21.9886C56.8697 22.5142 55.3178 22.777 53.4996 22.777C51.6744 22.777 50.0835 22.5036 48.7269 21.9567C47.3704 21.4098 46.3157 20.5788 45.5629 19.4638C44.81 18.3487 44.4229 16.9389 44.4016 15.2344H49.4514C49.494 15.9375 49.6822 16.5234 50.016 16.9922C50.3498 17.4609 50.8079 17.8161 51.3903 18.0575C51.9798 18.299 52.6616 18.4197 53.4357 18.4197C54.146 18.4197 54.7496 18.3239 55.2468 18.1321C55.7511 17.9403 56.1381 17.674 56.408 17.3331C56.6779 16.9922 56.8164 16.6016 56.8235 16.1612C56.8164 15.7493 56.6886 15.3977 56.44 15.1065C56.1914 14.8082 55.8079 14.5526 55.2894 14.3395C54.7781 14.1193 54.1246 13.9169 53.3292 13.7322L51.0494 13.1996C49.1602 12.7663 47.6722 12.0668 46.5856 11.1009C45.4989 10.1278 44.9592 8.81392 44.9663 7.15909C44.9592 5.80966 45.3214 4.62713 46.0529 3.6115C46.7845 2.59588 47.7965 1.80398 49.0891 1.23579C50.3818 0.667612 51.8555 0.383521 53.5103 0.383521C55.2006 0.383521 56.6673 0.671162 57.9102 1.24645C59.1602 1.81463 60.1296 2.61363 60.8185 3.64347C61.5075 4.67329 61.859 5.86648 61.8732 7.22301H56.8235ZM81.0345 0.681816H86.2972V14.755C86.2972 16.3814 85.9102 17.7983 85.136 19.0057C84.3619 20.206 83.2823 21.1364 81.8974 21.7969C80.5124 22.4503 78.9038 22.777 77.0714 22.777C75.2177 22.777 73.5984 22.4503 72.2134 21.7969C70.8285 21.1364 69.7525 20.206 68.9854 19.0057C68.2184 17.7983 67.8349 16.3814 67.8349 14.755V0.681816H73.1083V14.2969C73.1083 15.0497 73.2717 15.7209 73.5984 16.3104C73.9322 16.8999 74.3974 17.3615 74.994 17.6953C75.5906 18.0291 76.283 18.196 77.0714 18.196C77.8597 18.196 78.5487 18.0291 79.1381 17.6953C79.7347 17.3615 80.1999 16.8999 80.5337 16.3104C80.8676 15.7209 81.0345 15.0497 81.0345 14.2969V0.681816ZM92.6025 0.681816H99.133L104.673 14.1903H104.928L110.468 0.681816H116.999V22.5H111.864V9.09801H111.683L106.441 22.3615H103.16L97.9185 9.02344H97.7374V22.5H92.6025V0.681816ZM123.288 22.5V0.681816H138.501V4.96449H128.561V9.43892H137.723V13.7322H128.561V18.2173H138.501V22.5H123.288Z" fill="#14181B" fill-opacity="0.1"/>
</svg>
